<?xml version="1.0" encoding="UTF-8" standalone="no"?>
<!DOCTYPE svg PUBLIC "-//W3C//DTD SVG 1.1//EN"
 "http://www.w3.org/Graphics/SVG/1.1/DTD/svg11.dtd">
<!-- Generated by graphviz version 2.40.1 (20161225.0304)
 -->
<!-- Title: models_diagram Pages: 1 -->
<svg width="1663pt" height="1325pt"
 viewBox="0.00 0.00 1662.67 1325.25" xmlns="http://www.w3.org/2000/svg" xmlns:xlink="http://www.w3.org/1999/xlink">
<g id="graph0" class="graph" transform="scale(1 1) rotate(0) translate(36 1289.2516)">
<title>models_diagram</title>
<polygon fill="#ffffff" stroke="transparent" points="-36,36 -36,-1289.2516 1626.6748,-1289.2516 1626.6748,36 -36,36"/>
<!-- User -->
<g id="node1" class="node">
<title>User</title>
<polygon fill="#add8e6" stroke="transparent" points="192.9628,-238.6743 192.9628,-260.6743 281.9628,-260.6743 281.9628,-238.6743 192.9628,-238.6743"/>
<polygon fill="none" stroke="#000000" points="192.9628,-238.6743 192.9628,-260.6743 281.9628,-260.6743 281.9628,-238.6743 192.9628,-238.6743"/>
<text text-anchor="start" x="228.0248" y="-247.6743" font-family="Times,serif" font-weight="bold" font-size="10.00" fill="#000000">User</text>
<polygon fill="none" stroke="#000000" points="192.9628,-216.6743 192.9628,-238.6743 281.9628,-238.6743 281.9628,-216.6743 192.9628,-216.6743"/>
<text text-anchor="start" x="197.6088" y="-225.6743" font-family="Times,serif" text-decoration="underline" font-size="10.00" fill="#000000">id_User</text>
<text text-anchor="start" x="229.2638" y="-225.6743" font-family="Times,serif" font-size="10.00" fill="#000000">: NUMBER</text>
<polygon fill="none" stroke="#000000" points="192.9628,-194.6743 192.9628,-216.6743 281.9628,-216.6743 281.9628,-194.6743 192.9628,-194.6743"/>
<text text-anchor="start" x="197.6143" y="-202.6743" font-family="Times,serif" font-size="10.00" fill="#000000">username: STRING</text>
<polygon fill="none" stroke="#000000" points="192.9628,-172.6743 192.9628,-194.6743 281.9628,-194.6743 281.9628,-172.6743 192.9628,-172.6743"/>
<text text-anchor="start" x="197.8888" y="-180.6743" font-family="Times,serif" font-size="10.00" fill="#000000">password: STRING</text>
<polygon fill="none" stroke="#000000" points="192.9628,-150.6743 192.9628,-172.6743 281.9628,-172.6743 281.9628,-150.6743 192.9628,-150.6743"/>
<text text-anchor="start" x="197.9628" y="-158.6743" font-family="Times,serif" font-size="10.00" fill="#000000">sector: STRING</text>
<polygon fill="none" stroke="#000000" points="192.9628,-128.6743 192.9628,-150.6743 281.9628,-150.6743 281.9628,-128.6743 192.9628,-128.6743"/>
<text text-anchor="start" x="197.9628" y="-136.6743" font-family="Times,serif" font-size="10.00" fill="#000000">role: NUMBER</text>
</g>
<!-- UserCommandeGlobale -->
<g id="node13" class="node">
<title>UserCommandeGlobale</title>
<polygon fill="#add8e6" stroke="transparent" points="753.316,-121.0818 753.316,-143.0818 897.316,-143.0818 897.316,-121.0818 753.316,-121.0818"/>
<polygon fill="none" stroke="#000000" points="753.316,-121.0818 753.316,-143.0818 897.316,-143.0818 897.316,-121.0818 753.316,-121.0818"/>
<text text-anchor="start" x="776.998" y="-130.0818" font-family="Times,serif" font-weight="bold" font-size="10.00" fill="#000000">UserCommandeGlobale</text>
<polygon fill="none" stroke="#000000" points="753.316,-99.0818 753.316,-121.0818 897.316,-121.0818 897.316,-99.0818 753.316,-99.0818"/>
<text text-anchor="start" x="758.316" y="-108.0818" font-family="Times,serif" text-decoration="underline" font-size="10.00" fill="#000000">userId</text>
<text text-anchor="start" x="783.302" y="-108.0818" font-family="Times,serif" font-size="10.00" fill="#000000">: NUMBER</text>
<polygon fill="none" stroke="#000000" points="753.316,-77.0818 753.316,-99.0818 897.316,-99.0818 897.316,-77.0818 753.316,-77.0818"/>
<text text-anchor="start" x="758.245" y="-86.0818" font-family="Times,serif" text-decoration="underline" font-size="10.00" fill="#000000">CommandeGlobaleId</text>
<text text-anchor="start" x="844.334" y="-86.0818" font-family="Times,serif" font-size="10.00" fill="#000000">: NUMBER</text>
</g>
<!-- User&#45;&gt;UserCommandeGlobale -->
<g id="edge1" class="edge">
<title>User&#45;&gt;UserCommandeGlobale</title>
<path fill="none" stroke="#000000" stroke-width=".75" d="M281.6678,-188.2466C381.088,-173.9522 621.5762,-139.3752 746.7081,-121.384"/>
<polygon fill="#000000" stroke="#000000" stroke-width=".75" points="747.0066,-121.3411 753.3298,-123.1597 749.9761,-120.9141 752.9456,-120.4871 752.9456,-120.4871 752.9456,-120.4871 749.9761,-120.9141 752.5613,-117.8146 747.0066,-121.3411 747.0066,-121.3411"/>
</g>
<!-- CatalogueProduit -->
<g id="node2" class="node">
<title>CatalogueProduit</title>
<polygon fill="#add8e6" stroke="transparent" points="1226.6748,-665.1258 1226.6748,-687.1258 1364.6748,-687.1258 1364.6748,-665.1258 1226.6748,-665.1258"/>
<polygon fill="none" stroke="#000000" points="1226.6748,-665.1258 1226.6748,-687.1258 1364.6748,-687.1258 1364.6748,-665.1258 1226.6748,-665.1258"/>
<text text-anchor="start" x="1260.6798" y="-674.1258" font-family="Times,serif" font-weight="bold" font-size="10.00" fill="#000000">CatalogueProduit</text>
<polygon fill="none" stroke="#000000" points="1226.6748,-643.1258 1226.6748,-665.1258 1364.6748,-665.1258 1364.6748,-643.1258 1226.6748,-643.1258"/>
<text text-anchor="start" x="1231.3788" y="-652.1258" font-family="Times,serif" text-decoration="underline" font-size="10.00" fill="#000000">id_catalogueProduit</text>
<text text-anchor="start" x="1311.9178" y="-652.1258" font-family="Times,serif" font-size="10.00" fill="#000000">: NUMBER</text>
<polygon fill="none" stroke="#000000" points="1226.6748,-621.1258 1226.6748,-643.1258 1364.6748,-643.1258 1364.6748,-621.1258 1226.6748,-621.1258"/>
<text text-anchor="start" x="1231.6748" y="-629.1258" font-family="Times,serif" font-size="10.00" fill="#000000">name: STRING</text>
<polygon fill="none" stroke="#000000" points="1226.6748,-599.1258 1226.6748,-621.1258 1364.6748,-621.1258 1364.6748,-599.1258 1226.6748,-599.1258"/>
<text text-anchor="start" x="1231.6748" y="-607.1258" font-family="Times,serif" font-size="10.00" fill="#000000">prixVenteUnite: NUMBER</text>
<polygon fill="none" stroke="#000000" points="1226.6748,-577.1258 1226.6748,-599.1258 1364.6748,-599.1258 1364.6748,-577.1258 1226.6748,-577.1258"/>
<text text-anchor="start" x="1231.6748" y="-585.1258" font-family="Times,serif" font-size="10.00" fill="#000000">fournisseur: STRING</text>
<polygon fill="none" stroke="#000000" points="1226.6748,-555.1258 1226.6748,-577.1258 1364.6748,-577.1258 1364.6748,-555.1258 1226.6748,-555.1258"/>
<text text-anchor="start" x="1231.6748" y="-563.1258" font-family="Times,serif" font-size="10.00" fill="#000000">createdAt: DATE</text>
<polygon fill="none" stroke="#000000" points="1226.6748,-533.1258 1226.6748,-555.1258 1364.6748,-555.1258 1364.6748,-533.1258 1226.6748,-533.1258"/>
<text text-anchor="start" x="1231.6748" y="-541.1258" font-family="Times,serif" font-size="10.00" fill="#000000">updatedAt: DATE</text>
</g>
<!-- CatalogueProduitHistory -->
<g id="node3" class="node">
<title>CatalogueProduitHistory</title>
<polygon fill="#add8e6" stroke="transparent" points="1452.6748,-665.1258 1452.6748,-687.1258 1590.6748,-687.1258 1590.6748,-665.1258 1452.6748,-665.1258"/>
<polygon fill="none" stroke="#000000" points="1452.6748,-665.1258 1452.6748,-687.1258 1590.6748,-687.1258 1590.6748,-665.1258 1452.6748,-665.1258"/>
<text text-anchor="start" x="1471.6823" y="-674.1258" font-family="Times,serif" font-weight="bold" font-size="10.00" fill="#000000">CatalogueProduitHistory</text>
<polygon fill="none" stroke="#000000" points="1452.6748,-643.1258 1452.6748,-665.1258 1590.6748,-665.1258 1590.6748,-643.1258 1452.6748,-643.1258"/>
<text text-anchor="start" x="1457.6748" y="-652.1258" font-family="Times,serif" text-decoration="underline" font-size="10.00" fill="#000000">id</text>
<text text-anchor="start" x="1465.4538" y="-652.1258" font-family="Times,serif" font-size="10.00" fill="#000000">: NUMBER</text>
<polygon fill="none" stroke="#000000" points="1452.6748,-621.1258 1452.6748,-643.1258 1590.6748,-643.1258 1590.6748,-621.1258 1452.6748,-621.1258"/>
<text text-anchor="start" x="1457.6748" y="-629.1258" font-family="Times,serif" font-size="10.00" fill="#000000">prixVenteUnite: NUMBER</text>
<polygon fill="none" stroke="#000000" points="1452.6748,-599.1258 1452.6748,-621.1258 1590.6748,-621.1258 1590.6748,-599.1258 1452.6748,-599.1258"/>
<text text-anchor="start" x="1457.6748" y="-607.1258" font-family="Times,serif" font-size="10.00" fill="#000000">createdAt: DATE</text>
<polygon fill="none" stroke="#000000" points="1452.6748,-577.1258 1452.6748,-599.1258 1590.6748,-599.1258 1590.6748,-577.1258 1452.6748,-577.1258"/>
<text text-anchor="start" x="1457.6748" y="-585.1258" font-family="Times,serif" font-size="10.00" fill="#000000">updatedAt: DATE</text>
<polygon fill="none" stroke="#000000" points="1452.6748,-555.1258 1452.6748,-577.1258 1590.6748,-577.1258 1590.6748,-555.1258 1452.6748,-555.1258"/>
<text text-anchor="start" x="1457.3788" y="-564.1258" font-family="Times,serif" font-style="italic" text-decoration="underline" font-size="10.00" fill="#000000">id_catalogueProduit</text>
<text text-anchor="start" x="1537.9178" y="-564.1258" font-family="Times,serif" font-size="10.00" fill="#000000">: NUMBER</text>
<polygon fill="none" stroke="#000000" points="1452.6748,-533.1258 1452.6748,-555.1258 1590.6748,-555.1258 1590.6748,-533.1258 1452.6748,-533.1258"/>
<text text-anchor="start" x="1457.6748" y="-542.1258" font-family="Times,serif" font-style="italic" text-decoration="underline" font-size="10.00" fill="#000000">id_produitBDD</text>
<text text-anchor="start" x="1520.4478" y="-542.1258" font-family="Times,serif" font-size="10.00" fill="#000000">: NUMBER</text>
</g>
<!-- CatalogueProduitHistory&#45;&gt;CatalogueProduit -->
<g id="edge3" class="edge">
<title>CatalogueProduitHistory&#45;&gt;CatalogueProduit</title>
<path fill="none" stroke="#000000" stroke-width=".75" d="M1446.3586,-610.1258C1419.9817,-610.1258 1390.5111,-610.1258 1364.6766,-610.1258"/>
<polygon fill="#000000" stroke="#000000" stroke-width=".75" points="1446.6393,-610.1259 1452.6394,-612.8258 1449.6393,-610.1259 1452.6393,-610.1258 1452.6393,-610.1258 1452.6393,-610.1258 1449.6393,-610.1259 1452.6393,-607.4258 1446.6393,-610.1259 1446.6393,-610.1259"/>
</g>
<!-- QuantiteProduit  -->
<g id="node4" class="node">
<title>QuantiteProduit </title>
<polygon fill="#add8e6" stroke="transparent" points="1076.6748,-665.1258 1076.6748,-687.1258 1217.6748,-687.1258 1217.6748,-665.1258 1076.6748,-665.1258"/>
<polygon fill="none" stroke="#000000" points="1076.6748,-665.1258 1076.6748,-687.1258 1217.6748,-687.1258 1217.6748,-665.1258 1076.6748,-665.1258"/>
<text text-anchor="start" x="1113.9848" y="-674.1258" font-family="Times,serif" font-weight="bold" font-size="10.00" fill="#000000">QuantiteProduit </text>
<polygon fill="none" stroke="#000000" points="1076.6748,-643.1258 1076.6748,-665.1258 1217.6748,-665.1258 1217.6748,-643.1258 1076.6748,-643.1258"/>
<text text-anchor="start" x="1081.6748" y="-652.1258" font-family="Times,serif" text-decoration="underline" font-size="10.00" fill="#000000">id_quantiteProduit</text>
<text text-anchor="start" x="1156.1148" y="-652.1258" font-family="Times,serif" font-size="10.00" fill="#000000">: NUMBER</text>
<polygon fill="none" stroke="#000000" points="1076.6748,-621.1258 1076.6748,-643.1258 1217.6748,-643.1258 1217.6748,-621.1258 1076.6748,-621.1258"/>
<text text-anchor="start" x="1081.6748" y="-629.1258" font-family="Times,serif" font-size="10.00" fill="#000000">quantite: NUMBER</text>
<polygon fill="none" stroke="#000000" points="1076.6748,-599.1258 1076.6748,-621.1258 1217.6748,-621.1258 1217.6748,-599.1258 1076.6748,-599.1258"/>
<text text-anchor="start" x="1081.6748" y="-607.1258" font-family="Times,serif" font-size="10.00" fill="#000000">sector: STRING</text>
<polygon fill="none" stroke="#000000" points="1076.6748,-577.1258 1076.6748,-599.1258 1217.6748,-599.1258 1217.6748,-577.1258 1076.6748,-577.1258"/>
<text text-anchor="start" x="1081.6748" y="-586.1258" font-family="Times,serif" font-style="italic" text-decoration="underline" font-size="10.00" fill="#000000">id_catalogueProduit</text>
<text text-anchor="start" x="1162.2138" y="-586.1258" font-family="Times,serif" font-size="10.00" fill="#000000">: NUMBER</text>
<polygon fill="none" stroke="#000000" points="1076.6748,-555.1258 1076.6748,-577.1258 1217.6748,-577.1258 1217.6748,-555.1258 1076.6748,-555.1258"/>
<text text-anchor="start" x="1081.2143" y="-564.1258" font-family="Times,serif" font-style="italic" text-decoration="underline" font-size="10.00" fill="#000000">idCommandeSecteur</text>
<text text-anchor="start" x="1165.0823" y="-564.1258" font-family="Times,serif" font-size="10.00" fill="#000000">: NUMBER</text>
<polygon fill="none" stroke="#000000" points="1076.6748,-533.1258 1076.6748,-555.1258 1217.6748,-555.1258 1217.6748,-533.1258 1076.6748,-533.1258"/>
<text text-anchor="start" x="1081.6748" y="-542.1258" font-family="Times,serif" font-style="italic" text-decoration="underline" font-size="10.00" fill="#000000">idStockSecteur</text>
<text text-anchor="start" x="1142.2148" y="-542.1258" font-family="Times,serif" font-size="10.00" fill="#000000">: NUMBER</text>
</g>
<!-- QuantiteProduit &#45;&gt;CatalogueProduit -->
<g id="edge4" class="edge">
<title>QuantiteProduit &#45;&gt;CatalogueProduit</title>
<path fill="none" stroke="#000000" stroke-width=".75" d="M1223.459,-610.1258C1224.4,-610.1258 1225.3405,-610.1258 1226.2799,-610.1258"/>
<polygon fill="#000000" stroke="#000000" stroke-width=".75" points="1223.2477,-610.1259 1217.2477,-607.4258 1220.2477,-610.1259 1217.2477,-610.1258 1217.2477,-610.1258 1217.2477,-610.1258 1220.2477,-610.1259 1217.2476,-612.8258 1223.2477,-610.1259 1223.2477,-610.1259"/>
</g>
<!-- CommandeSecteur -->
<g id="node6" class="node">
<title>CommandeSecteur</title>
<polygon fill="#add8e6" stroke="transparent" points="988.4085,-984.3275 988.4085,-1006.3275 1131.4085,-1006.3275 1131.4085,-984.3275 988.4085,-984.3275"/>
<polygon fill="none" stroke="#000000" points="988.4085,-984.3275 988.4085,-1006.3275 1131.4085,-1006.3275 1131.4085,-984.3275 988.4085,-984.3275"/>
<text text-anchor="start" x="1021.864" y="-993.3275" font-family="Times,serif" font-weight="bold" font-size="10.00" fill="#000000">CommandeSecteur</text>
<polygon fill="none" stroke="#000000" points="988.4085,-962.3275 988.4085,-984.3275 1131.4085,-984.3275 1131.4085,-962.3275 988.4085,-962.3275"/>
<text text-anchor="start" x="993.4085" y="-971.3275" font-family="Times,serif" text-decoration="underline" font-size="10.00" fill="#000000">idCommandeSecteur</text>
<text text-anchor="start" x="1077.2765" y="-971.3275" font-family="Times,serif" font-size="10.00" fill="#000000">: NUMBER</text>
<polygon fill="none" stroke="#000000" points="988.4085,-940.3275 988.4085,-962.3275 1131.4085,-962.3275 1131.4085,-940.3275 988.4085,-940.3275"/>
<text text-anchor="start" x="993.4085" y="-948.3275" font-family="Times,serif" font-size="10.00" fill="#000000">dateSoumission: DATE</text>
<polygon fill="none" stroke="#000000" points="988.4085,-918.3275 988.4085,-940.3275 1131.4085,-940.3275 1131.4085,-918.3275 988.4085,-918.3275"/>
<text text-anchor="start" x="993.4085" y="-926.3275" font-family="Times,serif" font-size="10.00" fill="#000000">etat: STRING</text>
<polygon fill="none" stroke="#000000" points="988.4085,-896.3275 988.4085,-918.3275 1131.4085,-918.3275 1131.4085,-896.3275 988.4085,-896.3275"/>
<text text-anchor="start" x="993.4085" y="-904.3275" font-family="Times,serif" font-size="10.00" fill="#000000">createdAt: DATE</text>
<polygon fill="none" stroke="#000000" points="988.4085,-874.3275 988.4085,-896.3275 1131.4085,-896.3275 1131.4085,-874.3275 988.4085,-874.3275"/>
<text text-anchor="start" x="993.4085" y="-882.3275" font-family="Times,serif" font-size="10.00" fill="#000000">updatedAt: DATE</text>
<polygon fill="none" stroke="#000000" points="988.4085,-852.3275 988.4085,-874.3275 1131.4085,-874.3275 1131.4085,-852.3275 988.4085,-852.3275"/>
<text text-anchor="start" x="993.4085" y="-861.3275" font-family="Times,serif" font-style="italic" text-decoration="underline" font-size="10.00" fill="#000000">id_User</text>
<text text-anchor="start" x="1025.0635" y="-861.3275" font-family="Times,serif" font-size="10.00" fill="#000000">: NUMBER</text>
<polygon fill="none" stroke="#000000" points="988.4085,-830.3275 988.4085,-852.3275 1131.4085,-852.3275 1131.4085,-830.3275 988.4085,-830.3275"/>
<text text-anchor="start" x="993.1125" y="-839.3275" font-family="Times,serif" font-style="italic" text-decoration="underline" font-size="10.00" fill="#000000">idCommandeGlobale</text>
<text text-anchor="start" x="1078.6515" y="-839.3275" font-family="Times,serif" font-size="10.00" fill="#000000">: NUMBER</text>
<polygon fill="none" stroke="#000000" points="988.4085,-808.3275 988.4085,-830.3275 1131.4085,-830.3275 1131.4085,-808.3275 988.4085,-808.3275"/>
<text text-anchor="start" x="993.4085" y="-817.3275" font-family="Times,serif" font-style="italic" text-decoration="underline" font-size="10.00" fill="#000000">idStockSecteur</text>
<text text-anchor="start" x="1053.9485" y="-817.3275" font-family="Times,serif" font-size="10.00" fill="#000000">: NUMBER</text>
</g>
<!-- QuantiteProduit &#45;&gt;CommandeSecteur -->
<g id="edge5" class="edge">
<title>QuantiteProduit &#45;&gt;CommandeSecteur</title>
<path fill="none" stroke="#000000" stroke-width=".75" d="M1122.1776,-693.5556C1111.7149,-729.1881 1099.4217,-771.0548 1088.5008,-808.2483"/>
<polygon fill="#000000" stroke="#000000" stroke-width=".75" points="1122.2839,-693.1932 1126.565,-688.1969 1123.1292,-690.3147 1123.9744,-687.4362 1123.9744,-687.4362 1123.9744,-687.4362 1123.1292,-690.3147 1121.3838,-686.6755 1122.2839,-693.1932 1122.2839,-693.1932"/>
</g>
<!-- StockSecteur -->
<g id="node8" class="node">
<title>StockSecteur</title>
<polygon fill="#add8e6" stroke="transparent" points="1000.4085,-356.9241 1000.4085,-378.9241 1118.4085,-378.9241 1118.4085,-356.9241 1000.4085,-356.9241"/>
<polygon fill="none" stroke="#000000" points="1000.4085,-356.9241 1000.4085,-378.9241 1118.4085,-378.9241 1118.4085,-356.9241 1000.4085,-356.9241"/>
<text text-anchor="start" x="1033.028" y="-365.9241" font-family="Times,serif" font-weight="bold" font-size="10.00" fill="#000000">StockSecteur</text>
<polygon fill="none" stroke="#000000" points="1000.4085,-334.9241 1000.4085,-356.9241 1118.4085,-356.9241 1118.4085,-334.9241 1000.4085,-334.9241"/>
<text text-anchor="start" x="1005.112" y="-343.9241" font-family="Times,serif" text-decoration="underline" font-size="10.00" fill="#000000">idStockSecteur</text>
<text text-anchor="start" x="1065.652" y="-343.9241" font-family="Times,serif" font-size="10.00" fill="#000000">: NUMBER</text>
<polygon fill="none" stroke="#000000" points="1000.4085,-312.9241 1000.4085,-334.9241 1118.4085,-334.9241 1118.4085,-312.9241 1000.4085,-312.9241"/>
<text text-anchor="start" x="1005.4085" y="-320.9241" font-family="Times,serif" font-size="10.00" fill="#000000">sector: STRING</text>
<polygon fill="none" stroke="#000000" points="1000.4085,-290.9241 1000.4085,-312.9241 1118.4085,-312.9241 1118.4085,-290.9241 1000.4085,-290.9241"/>
<text text-anchor="start" x="1005.4085" y="-298.9241" font-family="Times,serif" font-size="10.00" fill="#000000">nombreCaisse: NUMBER</text>
<polygon fill="none" stroke="#000000" points="1000.4085,-268.9241 1000.4085,-290.9241 1118.4085,-290.9241 1118.4085,-268.9241 1000.4085,-268.9241"/>
<text text-anchor="start" x="1005.4085" y="-276.9241" font-family="Times,serif" font-size="10.00" fill="#000000">credit: NUMBER</text>
<polygon fill="none" stroke="#000000" points="1000.4085,-246.9241 1000.4085,-268.9241 1118.4085,-268.9241 1118.4085,-246.9241 1000.4085,-246.9241"/>
<text text-anchor="start" x="1005.4085" y="-255.9241" font-family="Times,serif" font-style="italic" text-decoration="underline" font-size="10.00" fill="#000000">id_User</text>
<text text-anchor="start" x="1037.0635" y="-255.9241" font-family="Times,serif" font-size="10.00" fill="#000000">: NUMBER</text>
</g>
<!-- QuantiteProduit &#45;&gt;StockSecteur -->
<g id="edge6" class="edge">
<title>QuantiteProduit &#45;&gt;StockSecteur</title>
<path fill="none" stroke="#000000" stroke-width=".75" d="M1122.2347,-526.8905C1108.5369,-480.24 1091.6873,-422.8557 1078.8871,-379.2622"/>
<polygon fill="#000000" stroke="#000000" stroke-width=".75" points="1122.2839,-527.0584 1121.3838,-533.5761 1123.1292,-529.9369 1123.9744,-532.8154 1123.9744,-532.8154 1123.9744,-532.8154 1123.1292,-529.9369 1126.565,-532.0547 1122.2839,-527.0584 1122.2839,-527.0584"/>
</g>
<!-- CommandeGlobale -->
<g id="node5" class="node">
<title>CommandeGlobale</title>
<polygon fill="#add8e6" stroke="transparent" points="447.7201,-110 447.7201,-132 590.7201,-132 590.7201,-110 447.7201,-110"/>
<polygon fill="none" stroke="#000000" points="447.7201,-110 447.7201,-132 590.7201,-132 590.7201,-110 447.7201,-110"/>
<text text-anchor="start" x="480.3401" y="-119" font-family="Times,serif" font-weight="bold" font-size="10.00" fill="#000000">CommandeGlobale</text>
<polygon fill="none" stroke="#000000" points="447.7201,-88 447.7201,-110 590.7201,-110 590.7201,-88 447.7201,-88"/>
<text text-anchor="start" x="452.4241" y="-97" font-family="Times,serif" text-decoration="underline" font-size="10.00" fill="#000000">idCommandeGlobale</text>
<text text-anchor="start" x="537.9631" y="-97" font-family="Times,serif" font-size="10.00" fill="#000000">: NUMBER</text>
<polygon fill="none" stroke="#000000" points="447.7201,-66 447.7201,-88 590.7201,-88 590.7201,-66 447.7201,-66"/>
<text text-anchor="start" x="452.7201" y="-74" font-family="Times,serif" font-size="10.00" fill="#000000">dateDepart: DATE</text>
<polygon fill="none" stroke="#000000" points="447.7201,-44 447.7201,-66 590.7201,-66 590.7201,-44 447.7201,-44"/>
<text text-anchor="start" x="452.7201" y="-52" font-family="Times,serif" font-size="10.00" fill="#000000">etat: BOOLEAN</text>
<polygon fill="none" stroke="#000000" points="447.7201,-22 447.7201,-44 590.7201,-44 590.7201,-22 447.7201,-22"/>
<text text-anchor="start" x="452.7201" y="-30" font-family="Times,serif" font-size="10.00" fill="#000000">createdAt: DATE</text>
<polygon fill="none" stroke="#000000" points="447.7201,0 447.7201,-22 590.7201,-22 590.7201,0 447.7201,0"/>
<text text-anchor="start" x="452.7201" y="-8" font-family="Times,serif" font-size="10.00" fill="#000000">updatedAt: DATE</text>
</g>
<!-- CommandeGlobale&#45;&gt;UserCommandeGlobale -->
<g id="edge2" class="edge">
<title>CommandeGlobale&#45;&gt;UserCommandeGlobale</title>
<path fill="none" stroke="#000000" stroke-width=".75" d="M590.6032,-76.3352C637.5346,-83.0829 698.8076,-91.8927 746.98,-98.8188"/>
<polygon fill="#000000" stroke="#000000" stroke-width=".75" points="747.1481,-98.8429 752.7027,-102.3694 750.1175,-99.2699 753.087,-99.6969 753.087,-99.6969 753.087,-99.6969 750.1175,-99.2699 753.4713,-97.0243 747.1481,-98.8429 747.1481,-98.8429"/>
</g>
<!-- CommandeSecteur&#45;&gt;User -->
<g id="edge7" class="edge">
<title>CommandeSecteur&#45;&gt;User</title>
<path fill="none" stroke="#000000" stroke-width=".75" d="M982.9435,-841.0702C814.4583,-695.0769 415.5779,-349.4451 281.6771,-233.4194"/>
<polygon fill="#000000" stroke="#000000" stroke-width=".75" points="983.326,-841.4017 986.0924,-847.3714 985.5933,-843.3663 987.8606,-845.3309 987.8606,-845.3309 987.8606,-845.3309 985.5933,-843.3663 989.6287,-843.2903 983.326,-841.4017 983.326,-841.4017"/>
</g>
<!-- CommandeSecteur&#45;&gt;CommandeGlobale -->
<g id="edge8" class="edge">
<title>CommandeSecteur&#45;&gt;CommandeGlobale</title>
<path fill="none" stroke="#000000" stroke-width=".75" d="M992.2204,-802.7808C879.3076,-627.0851 654.6825,-277.5616 561.14,-132.0066"/>
<polygon fill="#000000" stroke="#000000" stroke-width=".75" points="992.2843,-802.8803 993.2568,-809.3875 993.9062,-805.404 995.5282,-807.9278 995.5282,-807.9278 995.5282,-807.9278 993.9062,-805.404 997.7996,-806.468 992.2843,-802.8803 992.2843,-802.8803"/>
</g>
<!-- CommandeSecteur&#45;&gt;StockSecteur -->
<g id="edge9" class="edge">
<title>CommandeSecteur&#45;&gt;StockSecteur</title>
<path fill="none" stroke="#000000" stroke-width=".75" d="M1059.4085,-802.0438C1059.4085,-679.7397 1059.4085,-481.6712 1059.4085,-379.143"/>
<polygon fill="#000000" stroke="#000000" stroke-width=".75" points="1059.4086,-802.1724 1056.7085,-808.1723 1059.4085,-805.1724 1059.4085,-808.1724 1059.4085,-808.1724 1059.4085,-808.1724 1059.4085,-805.1724 1062.1085,-808.1724 1059.4086,-802.1724 1059.4086,-802.1724"/>
</g>
<!-- RecetteSecteur -->
<g id="node7" class="node">
<title>RecetteSecteur</title>
<polygon fill="#add8e6" stroke="transparent" points="755.316,-1143.1698 755.316,-1165.1698 896.316,-1165.1698 896.316,-1143.1698 755.316,-1143.1698"/>
<polygon fill="none" stroke="#000000" points="755.316,-1143.1698 755.316,-1165.1698 896.316,-1165.1698 896.316,-1143.1698 755.316,-1143.1698"/>
<text text-anchor="start" x="795.8325" y="-1152.1698" font-family="Times,serif" font-weight="bold" font-size="10.00" fill="#000000">RecetteSecteur</text>
<polygon fill="none" stroke="#000000" points="755.316,-1121.1698 755.316,-1143.1698 896.316,-1143.1698 896.316,-1121.1698 755.316,-1121.1698"/>
<text text-anchor="start" x="760.316" y="-1130.1698" font-family="Times,serif" text-decoration="underline" font-size="10.00" fill="#000000">idRecetteSecteur</text>
<text text-anchor="start" x="828.062" y="-1130.1698" font-family="Times,serif" font-size="10.00" fill="#000000">: NUMBER</text>
<polygon fill="none" stroke="#000000" points="755.316,-1099.1698 755.316,-1121.1698 896.316,-1121.1698 896.316,-1099.1698 755.316,-1099.1698"/>
<text text-anchor="start" x="760.316" y="-1107.1698" font-family="Times,serif" font-size="10.00" fill="#000000">montant: NUMBER</text>
<polygon fill="none" stroke="#000000" points="755.316,-1077.1698 755.316,-1099.1698 896.316,-1099.1698 896.316,-1077.1698 755.316,-1077.1698"/>
<text text-anchor="start" x="760.316" y="-1086.1698" font-family="Times,serif" font-style="italic" text-decoration="underline" font-size="10.00" fill="#000000">id_User</text>
<text text-anchor="start" x="791.971" y="-1086.1698" font-family="Times,serif" font-size="10.00" fill="#000000">: NUMBER</text>
<polygon fill="none" stroke="#000000" points="755.316,-1055.1698 755.316,-1077.1698 896.316,-1077.1698 896.316,-1055.1698 755.316,-1055.1698"/>
<text text-anchor="start" x="759.8555" y="-1064.1698" font-family="Times,serif" font-style="italic" text-decoration="underline" font-size="10.00" fill="#000000">idCommandeSecteur</text>
<text text-anchor="start" x="843.7235" y="-1064.1698" font-family="Times,serif" font-size="10.00" fill="#000000">: NUMBER</text>
</g>
<!-- RecetteSecteur&#45;&gt;User -->
<g id="edge10" class="edge">
<title>RecetteSecteur&#45;&gt;User</title>
<path fill="none" stroke="#000000" stroke-width=".75" d="M786.4634,-1049.714C680.8747,-885.4147 389.227,-431.602 279.4726,-260.8208"/>
<polygon fill="#000000" stroke="#000000" stroke-width=".75" points="786.593,-1049.9156 787.5655,-1056.4229 788.2149,-1052.4394 789.8369,-1054.9631 789.8369,-1054.9631 789.8369,-1054.9631 788.2149,-1052.4394 792.1083,-1053.5034 786.593,-1049.9156 786.593,-1049.9156"/>
</g>
<!-- RecetteSecteur&#45;&gt;CommandeSecteur -->
<g id="edge11" class="edge">
<title>RecetteSecteur&#45;&gt;CommandeSecteur</title>
<path fill="none" stroke="#000000" stroke-width=".75" d="M888.9736,-1055.0102C919.4362,-1028.6142 956.0393,-996.8974 987.503,-969.634"/>
</g>
<!-- StockSecteur&#45;&gt;User -->
<g id="edge12" class="edge">
<title>StockSecteur&#45;&gt;User</title>
<path fill="none" stroke="#000000" stroke-width=".75" d="M1000.2602,-304.4199C843.5405,-281.887 420.1333,-221.0102 281.5411,-201.0837"/>
</g>
<!-- VersementSecteur -->
<g id="node9" class="node">
<title>VersementSecteur</title>
<polygon fill="#add8e6" stroke="transparent" points=".5,-510.2515 .5,-532.2515 139.5,-532.2515 139.5,-510.2515 .5,-510.2515"/>
<polygon fill="none" stroke="#000000" points=".5,-510.2515 .5,-532.2515 139.5,-532.2515 139.5,-510.2515 .5,-510.2515"/>
<text text-anchor="start" x="33.352" y="-519.2515" font-family="Times,serif" font-weight="bold" font-size="10.00" fill="#000000">VersementSecteur</text>
<polygon fill="none" stroke="#000000" points=".5,-488.2515 .5,-510.2515 139.5,-510.2515 139.5,-488.2515 .5,-488.2515"/>
<text text-anchor="start" x="5.436" y="-497.2515" font-family="Times,serif" text-decoration="underline" font-size="10.00" fill="#000000">idVersementSecteur</text>
<text text-anchor="start" x="86.511" y="-497.2515" font-family="Times,serif" font-size="10.00" fill="#000000">: NUMBER</text>
<polygon fill="none" stroke="#000000" points=".5,-466.2515 .5,-488.2515 139.5,-488.2515 139.5,-466.2515 .5,-466.2515"/>
<text text-anchor="start" x="5.5" y="-474.2515" font-family="Times,serif" font-size="10.00" fill="#000000">amount: NUMBER</text>
<polygon fill="none" stroke="#000000" points=".5,-444.2515 .5,-466.2515 139.5,-466.2515 139.5,-444.2515 .5,-444.2515"/>
<text text-anchor="start" x="5.5" y="-452.2515" font-family="Times,serif" font-size="10.00" fill="#000000">date: DATE</text>
<polygon fill="none" stroke="#000000" points=".5,-422.2515 .5,-444.2515 139.5,-444.2515 139.5,-422.2515 .5,-422.2515"/>
<text text-anchor="start" x="5.5" y="-430.2515" font-family="Times,serif" font-size="10.00" fill="#000000">sector: STRING</text>
<polygon fill="none" stroke="#000000" points=".5,-400.2515 .5,-422.2515 139.5,-422.2515 139.5,-400.2515 .5,-400.2515"/>
<text text-anchor="start" x="5.5" y="-409.2515" font-family="Times,serif" font-style="italic" text-decoration="underline" font-size="10.00" fill="#000000">id_User</text>
<text text-anchor="start" x="37.155" y="-409.2515" font-family="Times,serif" font-size="10.00" fill="#000000">: NUMBER</text>
<polygon fill="none" stroke="#000000" points=".5,-378.2515 .5,-400.2515 139.5,-400.2515 139.5,-378.2515 .5,-378.2515"/>
<text text-anchor="start" x="5.5" y="-387.2515" font-family="Times,serif" font-style="italic" text-decoration="underline" font-size="10.00" fill="#000000">idRecetteSecteur</text>
<text text-anchor="start" x="73.246" y="-387.2515" font-family="Times,serif" font-size="10.00" fill="#000000">: NUMBER</text>
</g>
<!-- VersementSecteur&#45;&gt;User -->
<g id="edge13" class="edge">
<title>VersementSecteur&#45;&gt;User</title>
<path fill="none" stroke="#000000" stroke-width=".75" d="M122.4568,-372.8491C145.6347,-336.7835 172.4672,-295.0313 194.3292,-261.0135"/>
<polygon fill="#000000" stroke="#000000" stroke-width=".75" points="122.3085,-373.0798 116.7933,-376.6676 120.6866,-375.6036 119.0646,-378.1274 119.0646,-378.1274 119.0646,-378.1274 120.6866,-375.6036 121.336,-379.5871 122.3085,-373.0798 122.3085,-373.0798"/>
</g>
<!-- VersementSecteur&#45;&gt;RecetteSecteur -->
<g id="edge14" class="edge">
<title>VersementSecteur&#45;&gt;RecetteSecteur</title>
<path fill="none" stroke="#000000" stroke-width=".75" d="M139.2506,-515.6907C285.2466,-642.1969 621.1039,-933.219 761.6488,-1055.0018"/>
</g>
<!-- ChargeSecteur -->
<g id="node10" class="node">
<title>ChargeSecteur</title>
<polygon fill="#add8e6" stroke="transparent" points="7.5,-864.0002 7.5,-886.0002 132.5,-886.0002 132.5,-864.0002 7.5,-864.0002"/>
<polygon fill="none" stroke="#000000" points="7.5,-864.0002 7.5,-886.0002 132.5,-886.0002 132.5,-864.0002 7.5,-864.0002"/>
<text text-anchor="start" x="40.57" y="-873.0002" font-family="Times,serif" font-weight="bold" font-size="10.00" fill="#000000">ChargeSecteur</text>
<polygon fill="none" stroke="#000000" points="7.5,-842.0002 7.5,-864.0002 132.5,-864.0002 132.5,-842.0002 7.5,-842.0002"/>
<text text-anchor="start" x="12.5" y="-851.0002" font-family="Times,serif" text-decoration="underline" font-size="10.00" fill="#000000">idCharge</text>
<text text-anchor="start" x="49.155" y="-851.0002" font-family="Times,serif" font-size="10.00" fill="#000000">: NUMBER</text>
<polygon fill="none" stroke="#000000" points="7.5,-820.0002 7.5,-842.0002 132.5,-842.0002 132.5,-820.0002 7.5,-820.0002"/>
<text text-anchor="start" x="12.5" y="-828.0002" font-family="Times,serif" font-size="10.00" fill="#000000">description: STRING</text>
<polygon fill="none" stroke="#000000" points="7.5,-798.0002 7.5,-820.0002 132.5,-820.0002 132.5,-798.0002 7.5,-798.0002"/>
<text text-anchor="start" x="12.5" y="-806.0002" font-family="Times,serif" font-size="10.00" fill="#000000">amount: NUMBER</text>
<polygon fill="none" stroke="#000000" points="7.5,-776.0002 7.5,-798.0002 132.5,-798.0002 132.5,-776.0002 7.5,-776.0002"/>
<text text-anchor="start" x="12.5" y="-784.0002" font-family="Times,serif" font-size="10.00" fill="#000000">date: DATE</text>
<polygon fill="none" stroke="#000000" points="7.5,-754.0002 7.5,-776.0002 132.5,-776.0002 132.5,-754.0002 7.5,-754.0002"/>
<text text-anchor="start" x="12.5" y="-762.0002" font-family="Times,serif" font-size="10.00" fill="#000000">sector: STRING</text>
<polygon fill="none" stroke="#000000" points="7.5,-732.0002 7.5,-754.0002 132.5,-754.0002 132.5,-732.0002 7.5,-732.0002"/>
<text text-anchor="start" x="12.5" y="-740.0002" font-family="Times,serif" font-size="10.00" fill="#000000">status: STRING</text>
<polygon fill="none" stroke="#000000" points="7.5,-710.0002 7.5,-732.0002 132.5,-732.0002 132.5,-710.0002 7.5,-710.0002"/>
<text text-anchor="start" x="12.5" y="-718.0002" font-family="Times,serif" font-size="10.00" fill="#000000">createdAt: DATE</text>
<polygon fill="none" stroke="#000000" points="7.5,-688.0002 7.5,-710.0002 132.5,-710.0002 132.5,-688.0002 7.5,-688.0002"/>
<text text-anchor="start" x="12.5" y="-696.0002" font-family="Times,serif" font-size="10.00" fill="#000000">updatedAt: DATE</text>
<polygon fill="none" stroke="#000000" points="7.5,-666.0002 7.5,-688.0002 132.5,-688.0002 132.5,-666.0002 7.5,-666.0002"/>
<text text-anchor="start" x="12.5" y="-675.0002" font-family="Times,serif" font-style="italic" text-decoration="underline" font-size="10.00" fill="#000000">id_User</text>
<text text-anchor="start" x="44.155" y="-675.0002" font-family="Times,serif" font-size="10.00" fill="#000000">: NUMBER</text>
<polygon fill="none" stroke="#000000" points="7.5,-644.0002 7.5,-666.0002 132.5,-666.0002 132.5,-644.0002 7.5,-644.0002"/>
<text text-anchor="start" x="12.1005" y="-653.0002" font-family="Times,serif" font-style="italic" text-decoration="underline" font-size="10.00" fill="#000000">idRecetteSecteur</text>
<text text-anchor="start" x="79.8465" y="-653.0002" font-family="Times,serif" font-size="10.00" fill="#000000">: NUMBER</text>
</g>
<!-- ChargeSecteur&#45;&gt;User -->
<g id="edge15" class="edge">
<title>ChargeSecteur&#45;&gt;User</title>
<path fill="none" stroke="#000000" stroke-width=".75" d="M106.8402,-637.8309C141.1253,-521.0668 190.5733,-352.6625 217.5703,-260.7191"/>
<polygon fill="#000000" stroke="#000000" stroke-width=".75" points="106.8075,-637.9428 102.5264,-642.939 105.9622,-640.8213 105.117,-643.6998 105.117,-643.6998 105.117,-643.6998 105.9622,-640.8213 107.7076,-644.4605 106.8075,-637.9428 106.8075,-637.9428"/>
</g>
<!-- ChargeSecteur&#45;&gt;RecetteSecteur -->
<g id="edge16" class="edge">
<title>ChargeSecteur&#45;&gt;RecetteSecteur</title>
<path fill="none" stroke="#000000" stroke-width=".75" d="M138.1579,-796.3552C281.2104,-861.6851 609.8863,-1011.7863 754.6541,-1077.8995"/>
<polygon fill="#000000" stroke="#000000" stroke-width=".75" points="137.775,-796.1803 133.4388,-791.2318 135.0461,-794.9341 132.3172,-793.6878 132.3172,-793.6878 132.3172,-793.6878 135.0461,-794.9341 131.1955,-796.1438 137.775,-796.1803 137.775,-796.1803"/>
</g>
<!-- InvenduSecteur -->
<g id="node11" class="node">
<title>InvenduSecteur</title>
<polygon fill="#add8e6" stroke="transparent" points="174.9628,-1102.5773 174.9628,-1124.5773 299.9628,-1124.5773 299.9628,-1102.5773 174.9628,-1102.5773"/>
<polygon fill="none" stroke="#000000" points="174.9628,-1102.5773 174.9628,-1124.5773 299.9628,-1124.5773 299.9628,-1102.5773 174.9628,-1102.5773"/>
<text text-anchor="start" x="206.0868" y="-1111.5773" font-family="Times,serif" font-weight="bold" font-size="10.00" fill="#000000">InvenduSecteur</text>
<polygon fill="none" stroke="#000000" points="174.9628,-1080.5773 174.9628,-1102.5773 299.9628,-1102.5773 299.9628,-1080.5773 174.9628,-1080.5773"/>
<text text-anchor="start" x="179.9628" y="-1089.5773" font-family="Times,serif" text-decoration="underline" font-size="10.00" fill="#000000">idInvendu</text>
<text text-anchor="start" x="220.5098" y="-1089.5773" font-family="Times,serif" font-size="10.00" fill="#000000">: NUMBER</text>
<polygon fill="none" stroke="#000000" points="174.9628,-1058.5773 174.9628,-1080.5773 299.9628,-1080.5773 299.9628,-1058.5773 174.9628,-1058.5773"/>
<text text-anchor="start" x="179.9628" y="-1066.5773" font-family="Times,serif" font-size="10.00" fill="#000000">montant: NUMBER</text>
<polygon fill="none" stroke="#000000" points="174.9628,-1036.5773 174.9628,-1058.5773 299.9628,-1058.5773 299.9628,-1036.5773 174.9628,-1036.5773"/>
<text text-anchor="start" x="179.9628" y="-1044.5773" font-family="Times,serif" font-size="10.00" fill="#000000">date: DATE</text>
<polygon fill="none" stroke="#000000" points="174.9628,-1014.5773 174.9628,-1036.5773 299.9628,-1036.5773 299.9628,-1014.5773 174.9628,-1014.5773"/>
<text text-anchor="start" x="179.9628" y="-1022.5773" font-family="Times,serif" font-size="10.00" fill="#000000">sector: STRING</text>
<polygon fill="none" stroke="#000000" points="174.9628,-992.5773 174.9628,-1014.5773 299.9628,-1014.5773 299.9628,-992.5773 174.9628,-992.5773"/>
<text text-anchor="start" x="179.9628" y="-1000.5773" font-family="Times,serif" font-size="10.00" fill="#000000">createdAt: DATE</text>
<polygon fill="none" stroke="#000000" points="174.9628,-970.5773 174.9628,-992.5773 299.9628,-992.5773 299.9628,-970.5773 174.9628,-970.5773"/>
<text text-anchor="start" x="179.9628" y="-978.5773" font-family="Times,serif" font-size="10.00" fill="#000000">updatedAt: DATE</text>
<polygon fill="none" stroke="#000000" points="174.9628,-948.5773 174.9628,-970.5773 299.9628,-970.5773 299.9628,-948.5773 174.9628,-948.5773"/>
<text text-anchor="start" x="179.9628" y="-957.5773" font-family="Times,serif" font-style="italic" text-decoration="underline" font-size="10.00" fill="#000000">id_User</text>
<text text-anchor="start" x="211.6178" y="-957.5773" font-family="Times,serif" font-size="10.00" fill="#000000">: NUMBER</text>
<polygon fill="none" stroke="#000000" points="174.9628,-926.5773 174.9628,-948.5773 299.9628,-948.5773 299.9628,-926.5773 174.9628,-926.5773"/>
<text text-anchor="start" x="179.5633" y="-935.5773" font-family="Times,serif" font-style="italic" text-decoration="underline" font-size="10.00" fill="#000000">idRecetteSecteur</text>
<text text-anchor="start" x="247.3093" y="-935.5773" font-family="Times,serif" font-size="10.00" fill="#000000">: NUMBER</text>
</g>
<!-- InvenduSecteur&#45;&gt;User -->
<g id="edge17" class="edge">
<title>InvenduSecteur&#45;&gt;User</title>
<path fill="none" stroke="#000000" stroke-width=".75" d="M236.9628,-920.0619C236.9628,-746.1697 236.9628,-404.3636 236.9628,-260.7248"/>
<polygon fill="#000000" stroke="#000000" stroke-width=".75" points="236.9629,-920.1763 234.2628,-926.1763 236.9628,-923.1763 236.9628,-926.1763 236.9628,-926.1763 236.9628,-926.1763 236.9628,-923.1763 239.6628,-926.1764 236.9629,-920.1763 236.9629,-920.1763"/>
</g>
<!-- InvenduSecteur&#45;&gt;RecetteSecteur -->
<g id="edge18" class="edge">
<title>InvenduSecteur&#45;&gt;RecetteSecteur</title>
<path fill="none" stroke="#000000" stroke-width=".75" d="M299.6481,-1034.5901C410.091,-1050.4694 638.6055,-1083.3249 754.5417,-1099.994"/>
</g>
<!-- PerteSecteur -->
<g id="node12" class="node">
<title>PerteSecteur</title>
<polygon fill="#add8e6" stroke="transparent" points="456.7201,-1231.2516 456.7201,-1253.2516 581.7201,-1253.2516 581.7201,-1231.2516 456.7201,-1231.2516"/>
<polygon fill="none" stroke="#000000" points="456.7201,-1231.2516 456.7201,-1253.2516 581.7201,-1253.2516 581.7201,-1231.2516 456.7201,-1231.2516"/>
<text text-anchor="start" x="493.9556" y="-1240.2516" font-family="Times,serif" font-weight="bold" font-size="10.00" fill="#000000">PerteSecteur</text>
<polygon fill="none" stroke="#000000" points="456.7201,-1209.2516 456.7201,-1231.2516 581.7201,-1231.2516 581.7201,-1209.2516 456.7201,-1209.2516"/>
<text text-anchor="start" x="461.7201" y="-1218.2516" font-family="Times,serif" text-decoration="underline" font-size="10.00" fill="#000000">idPerteSecteur</text>
<text text-anchor="start" x="520.0281" y="-1218.2516" font-family="Times,serif" font-size="10.00" fill="#000000">: NUMBER</text>
<polygon fill="none" stroke="#000000" points="456.7201,-1187.2516 456.7201,-1209.2516 581.7201,-1209.2516 581.7201,-1187.2516 456.7201,-1187.2516"/>
<text text-anchor="start" x="461.7201" y="-1195.2516" font-family="Times,serif" font-size="10.00" fill="#000000">montant: NUMBER</text>
<polygon fill="none" stroke="#000000" points="456.7201,-1165.2516 456.7201,-1187.2516 581.7201,-1187.2516 581.7201,-1165.2516 456.7201,-1165.2516"/>
<text text-anchor="start" x="461.7201" y="-1173.2516" font-family="Times,serif" font-size="10.00" fill="#000000">date: DATE</text>
<polygon fill="none" stroke="#000000" points="456.7201,-1143.2516 456.7201,-1165.2516 581.7201,-1165.2516 581.7201,-1143.2516 456.7201,-1143.2516"/>
<text text-anchor="start" x="461.7201" y="-1151.2516" font-family="Times,serif" font-size="10.00" fill="#000000">sector: STRING</text>
<polygon fill="none" stroke="#000000" points="456.7201,-1121.2516 456.7201,-1143.2516 581.7201,-1143.2516 581.7201,-1121.2516 456.7201,-1121.2516"/>
<text text-anchor="start" x="461.7201" y="-1129.2516" font-family="Times,serif" font-size="10.00" fill="#000000">createdAt: DATE</text>
<polygon fill="none" stroke="#000000" points="456.7201,-1099.2516 456.7201,-1121.2516 581.7201,-1121.2516 581.7201,-1099.2516 456.7201,-1099.2516"/>
<text text-anchor="start" x="461.7201" y="-1107.2516" font-family="Times,serif" font-size="10.00" fill="#000000">updatedAt: DATE</text>
<polygon fill="none" stroke="#000000" points="456.7201,-1077.2516 456.7201,-1099.2516 581.7201,-1099.2516 581.7201,-1077.2516 456.7201,-1077.2516"/>
<text text-anchor="start" x="461.7201" y="-1086.2516" font-family="Times,serif" font-style="italic" text-decoration="underline" font-size="10.00" fill="#000000">id_User</text>
<text text-anchor="start" x="493.3751" y="-1086.2516" font-family="Times,serif" font-size="10.00" fill="#000000">: NUMBER</text>
<polygon fill="none" stroke="#000000" points="456.7201,-1055.2516 456.7201,-1077.2516 581.7201,-1077.2516 581.7201,-1055.2516 456.7201,-1055.2516"/>
<text text-anchor="start" x="461.3206" y="-1064.2516" font-family="Times,serif" font-style="italic" text-decoration="underline" font-size="10.00" fill="#000000">idRecetteSecteur</text>
<text text-anchor="start" x="529.0666" y="-1064.2516" font-family="Times,serif" font-size="10.00" fill="#000000">: NUMBER</text>
</g>
<!-- PerteSecteur&#45;&gt;User -->
<g id="edge19" class="edge">
<title>PerteSecteur&#45;&gt;User</title>
<path fill="none" stroke="#000000" stroke-width=".75" d="M487.9218,-1049.3621C429.5766,-850.6567 304.4737,-424.5953 256.3647,-260.7511"/>
<polygon fill="#000000" stroke="#000000" stroke-width=".75" points="487.9379,-1049.4172 487.0377,-1055.9349 488.7831,-1052.2957 489.6284,-1055.1742 489.6284,-1055.1742 489.6284,-1055.1742 488.7831,-1052.2957 492.219,-1054.4135 487.9379,-1049.4172 487.9379,-1049.4172"/>
</g>
<!-- PerteSecteur&#45;&gt;RecetteSecteur -->
<g id="edge20" class="edge">
<title>PerteSecteur&#45;&gt;RecetteSecteur</title>
<path fill="none" stroke="#000000" stroke-width=".75" d="M581.5042,-1145.2246C631.7845,-1137.9954 702.3047,-1127.8561 754.5752,-1120.3408"/>
</g>
</g>
</svg>
